<?xml version="1.0" encoding="UTF-8" standalone="no"?>
<!-- Created with Inkscape (http://www.inkscape.org/) -->
<svg xmlns:dc="http://purl.org/dc/elements/1.1/" xmlns:cc="http://creativecommons.org/ns#" xmlns:rdf="http://www.w3.org/1999/02/22-rdf-syntax-ns#" xmlns:svg="http://www.w3.org/2000/svg" xmlns="http://www.w3.org/2000/svg" xmlns:xlink="http://www.w3.org/1999/xlink" version="1.1" width="393.19" height="133.42" id="svg2">
  <title id="title3015">SFML Logo</title>
  <defs id="defs4">
    <linearGradient id="linearGradient6147">
      <stop id="stop6149" style="stop-color:#b4b4b4;stop-opacity:1" offset="0"/>
      <stop id="stop6151" style="stop-color:#ffffff;stop-opacity:1" offset="1"/>
    </linearGradient>
    <linearGradient id="linearGradient4987">
      <stop id="stop4989" style="stop-color:#a9ee52;stop-opacity:1" offset="0"/>
      <stop id="stop4991" style="stop-color:#53880e;stop-opacity:1" offset="1"/>
    </linearGradient>
    <linearGradient x1="2343.2" y1="2232" x2="2343.2" y2="2428.3999" id="linearGradient4885" xlink:href="#linearGradient4987" gradientUnits="userSpaceOnUse" gradientTransform="translate(-2253.6,-2223.8)"/>
    <linearGradient x1="1278.2" y1="2736.3999" x2="1278.2" y2="2574.3999" id="linearGradient4887" xlink:href="#linearGradient6147" gradientUnits="userSpaceOnUse" gradientTransform="translate(4859.7,-2175.4)"/>
    <linearGradient x1="1277" y1="2519.1001" x2="1278.2" y2="2736.3999" id="linearGradient4897" gradientUnits="userSpaceOnUse" gradientTransform="translate(4859.7,-2175.4)">
      <stop id="stop4554" style="stop-color:#7d7d7d;stop-opacity:1" offset="0"/>
      <stop id="stop4556" style="stop-color:#7d7d7d;stop-opacity:1" offset="1"/>
    </linearGradient>
    <linearGradient x1="2343.2" y1="2232" x2="2343.2" y2="2361.8999" id="linearGradient4923" xlink:href="#linearGradient4987" gradientUnits="userSpaceOnUse" gradientTransform="translate(-2253.6,-2223.8)"/>
    <linearGradient x1="1278.2" y1="2655.6001" x2="1278.2" y2="2574.3999" id="linearGradient4994" xlink:href="#linearGradient6147" gradientUnits="userSpaceOnUse" gradientTransform="matrix(0.79697,0,0,0.79697,-751.52,-2003.5)"/>
  </defs>
  <metadata id="metadata7">
    <rdf:RDF>
      <cc:Work rdf:about="">
        <dc:format>image/svg+xml</dc:format>
        <dc:type rdf:resource="http://purl.org/dc/dcmitype/StillImage"/>
        <dc:title>SFML Logo</dc:title>
        <dc:date>1 May 2013</dc:date>
        <dc:creator>
          <cc:Agent>
            <dc:title>Michael Bradshaw</dc:title>
          </cc:Agent>
        </dc:creator>
        <cc:license rdf:resource="http://creativecommons.org/licenses/publicdomain/"/>
      </cc:Work>
      <cc:License rdf:about="http://creativecommons.org/licenses/publicdomain/">
        <cc:permits rdf:resource="http://creativecommons.org/ns#Reproduction"/>
        <cc:permits rdf:resource="http://creativecommons.org/ns#Distribution"/>
        <cc:permits rdf:resource="http://creativecommons.org/ns#DerivativeWorks"/>
      </cc:License>
    </rdf:RDF>
  </metadata>
  <g transform="matrix(0.79697,0,0,0.79697,-4624.5,-269.71)" id="text6340" style="fill:none;stroke:url(#linearGradient4897);stroke-width:2">
    <path d="m 5992.7,461.04 c -4.2,0 -7.68,3.48 -7.68,7.68 0,4.2 3.48,7.68 7.68,7.68 h 38.4 c 12.72,0 23.04,-10.32 23.04,-23.04 0,-12.72 -10.32,-23.04 -23.04,-23.04 h -23.04 c -4.2,0 -7.68,-3.48 -7.68,-7.68 0,-4.2 3.48,-7.68 7.68,-7.68 h 34.56 c 4.2,0 7.68,-3.48 7.68,-7.68 0,-4.2 -3.48,-7.68 -7.68,-7.68 h -34.56 c -12.72,0 -23.04,10.32 -23.04,23.04 0,12.72 10.32,23.04 23.04,23.04 h 23.04 c 4.2,0 7.68,3.48 7.68,7.68 0,4.2 -3.48,7.68 -7.68,7.68 h -38.4" id="path5982"/>
    <path d="m 6075.2,445.68 h 28.8 c 4.2,0 7.68,-3.48 7.68,-7.68 0,-4.2 -3.48,-7.68 -7.68,-7.68 h -28.8 v -15.36 h 38.4 c 4.2,0 7.68,-3.48 7.68,-7.68 0,-4.2 -3.48,-7.68 -7.68,-7.68 h -46.08 c -4.2,0 -7.68,3.48 -7.68,7.68 v 61.44 c 0,4.2 3.48,7.68 7.68,7.68 4.2,0 7.68,-3.48 7.68,-7.68 v -23.04" id="path5984"/>
    <path d="m 6169.3,449.52 c 1.92,0 3.96,-0.72 5.4,-2.28 l 21.48,-21.48 v 42.96 c 0,4.2 3.48,7.68 7.68,7.68 4.2,0 7.68,-3.48 7.68,-7.68 v -61.44 c 0,-4.2 -3.48,-7.68 -7.68,-7.68 -2.04,0 -3.96,0.84 -5.4,2.28 l -29.16,29.16 -29.16,-29.16 c -1.44,-1.44 -3.36,-2.28 -5.4,-2.28 -4.2,0 -7.68,3.48 -7.68,7.68 v 61.44 c 0,4.2 3.48,7.68 7.68,7.68 4.2,0 7.68,-3.48 7.68,-7.68 v -42.96 l 21.48,21.48 c 1.44,1.56 3.48,2.28 5.4,2.28" id="path5986"/>
    <path d="m 6221.1,468.72 c 0,4.2 3.48,7.68 7.68,7.68 h 46.08 c 4.2,0 7.68,-3.48 7.68,-7.68 0,-4.2 -3.48,-7.68 -7.68,-7.68 h -38.4 v -53.76 c 0,-4.2 -3.48,-7.68 -7.68,-7.68 -4.2,0 -7.68,3.48 -7.68,7.68 v 61.44" id="path5988"/>
  </g>
  <g transform="matrix(0.79697,0,0,0.79697,-4624.5,-269.71)" id="text6344" style="fill:url(#linearGradient4887)">
    <path d="m 5992.7,461.04 c -4.2,0 -7.68,3.48 -7.68,7.68 0,4.2 3.48,7.68 7.68,7.68 h 38.4 c 12.72,0 23.04,-10.32 23.04,-23.04 0,-12.72 -10.32,-23.04 -23.04,-23.04 h -23.04 c -4.2,0 -7.68,-3.48 -7.68,-7.68 0,-4.2 3.48,-7.68 7.68,-7.68 h 34.56 c 4.2,0 7.68,-3.48 7.68,-7.68 0,-4.2 -3.48,-7.68 -7.68,-7.68 h -34.56 c -12.72,0 -23.04,10.32 -23.04,23.04 0,12.72 10.32,23.04 23.04,23.04 h 23.04 c 4.2,0 7.68,3.48 7.68,7.68 0,4.2 -3.48,7.68 -7.68,7.68 h -38.4" id="path5962"/>
    <path d="m 6075.2,445.68 h 28.8 c 4.2,0 7.68,-3.48 7.68,-7.68 0,-4.2 -3.48,-7.68 -7.68,-7.68 h -28.8 v -15.36 h 38.4 c 4.2,0 7.68,-3.48 7.68,-7.68 0,-4.2 -3.48,-7.68 -7.68,-7.68 h -46.08 c -4.2,0 -7.68,3.48 -7.68,7.68 v 61.44 c 0,4.2 3.48,7.68 7.68,7.68 4.2,0 7.68,-3.48 7.68,-7.68 v -23.04" id="path5964"/>
    <path d="m 6169.3,449.52 c 1.92,0 3.96,-0.72 5.4,-2.28 l 21.48,-21.48 v 42.96 c 0,4.2 3.48,7.68 7.68,7.68 4.2,0 7.68,-3.48 7.68,-7.68 v -61.44 c 0,-4.2 -3.48,-7.68 -7.68,-7.68 -2.04,0 -3.96,0.84 -5.4,2.28 l -29.16,29.16 -29.16,-29.16 c -1.44,-1.44 -3.36,-2.28 -5.4,-2.28 -4.2,0 -7.68,3.48 -7.68,7.68 v 61.44 c 0,4.2 3.48,7.68 7.68,7.68 4.2,0 7.68,-3.48 7.68,-7.68 v -42.96 l 21.48,21.48 c 1.44,1.56 3.48,2.28 5.4,2.28" id="path5966"/>
    <path d="m 6221.1,468.72 c 0,4.2 3.48,7.68 7.68,7.68 h 46.08 c 4.2,0 7.68,-3.48 7.68,-7.68 0,-4.2 -3.48,-7.68 -7.68,-7.68 h -38.4 v -53.76 c 0,-4.2 -3.48,-7.68 -7.68,-7.68 -4.2,0 -7.68,3.48 -7.68,7.68 v 61.44" id="path5968"/>
  </g>
  <g id="g3370" style="fill:url(#linearGradient4994)">
    <path d="m 186.19,87.125 c 1.2062,1.1223 1.9375,2.7464 1.9375,4.5 0,3.3473 -2.7465,6.0938 -6.0938,6.0938 h -30.625 c -3.3473,0 -6.125,2.7778 -6.125,6.125 0,3.3472 2.7777,6.125 6.125,6.125 h 30.625 c 10.137,0 18.344,-8.2064 18.344,-18.344 0,-1.5281 -0.21037,-3.018 -0.5625,-4.4375 -1.0753,0.004 -2.1399,0.0312 -3.2188,0.0312 -3.4879,0 -6.9568,-0.0494 -10.406,-0.0937 z" id="path4913"/>
    <path d="m 217.16,86.937 c -4.0514,0.10366 -8.1401,0.17655 -12.25,0.21875 v 16.688 c 0,3.3472 2.7778,6.125 6.125,6.125 3.3472,0 6.125,-2.7778 6.125,-6.125 v -16.906 z" id="path4915"/>
    <path d="m 325.84,75.719 c -3.9841,0.78787 -8.0546,1.5346 -12.219,2.25 v 25.875 c 0,3.3472 2.7465,6.125 6.0938,6.125 3.3473,0 6.125,-2.7778 6.125,-6.125 V 75.719 z m -22.188,3.8438 c -6.5517,1.0005 -13.302,1.9018 -20.219,2.7188 l 4.4375,4.4375 c 1.1476,1.2433 2.7823,1.8438 4.3125,1.8438 1.5302,0 3.1649,-0.60048 4.3125,-1.8438 l 7.1562,-7.1562 z m -32.906,4.125 c -4.0235,0.39624 -8.0963,0.72995 -12.219,1.0625 v 19.094 c 0,3.3472 2.7778,6.125 6.125,6.125 3.3472,0 6.0938,-2.7778 6.0938,-6.125 v -20.156 z" id="path4917"/>
    <path d="m 345.66,71.312 c -3.9641,0.98472 -8.0194,1.9383 -12.219,2.8438 v 29.688 c 0,3.3472 2.7777,6.125 6.125,6.125 h 36.719 c 3.3472,0 6.125,-2.7778 6.125,-6.125 0,-3.3472 -2.7778,-6.125 -6.125,-6.125 H 345.66 v -26.406 z" id="path4919"/>
  </g>
  <path d="m 87.546,19.273 3.886,2.8233 3.8859,2.8233 3.886,2.8233 3.886,2.8233 3.8858,2.8233 3.886,2.8233 c 19.738,14.509 17.411,20.329 12.008,36.958 l -1.4844,4.5682 -1.4843,4.5681 -1.4843,4.5681 -1.4843,4.5682 -1.4843,4.5682 -1.4843,4.5682 c -7.6993,23.255 -13.954,22.841 -31.438,22.841 h -28.819 c -24.497,-0.1361 -26.035,-6.2125 -31.438,-22.841 l -1.4843,-4.5682 -1.4843,-4.5682 -1.4843,-4.5682 -1.4843,-4.5681 -1.4843,-4.5682 -1.4844,-4.5682 c -7.4402,-23.34 -2.1364,-26.681 12.008,-36.958 l 3.8859,-2.8233 3.886,-2.8233 3.8859,-2.8233 3.8859,-2.8234 3.886,-2.8233 3.886,-2.8233 c 19.898,-14.289 24.715,-10.277 38.859,10e-5 z" id="path6382" style="fill:url(#linearGradient4885)"/>
  <path d="m 10.188,59.469 c 0.37239,3.6681 1.4035,8.091 3.1875,13.688 l 1.4688,4.5938 1.5,4.5625 1.4688,4.5625 1.5,4.5625 1.4688,4.5625 1.5,4.5938 c 5.403,16.629 6.9408,22.676 31.438,22.812 h 28.812 c 17.484,0 23.738,0.4429 31.438,-22.812 l 1.4688,-4.5938 1.5,-4.5625 1.4688,-4.5625 1.125,-3.4688 C 74.9375,78.815 36.8215,70.363 10.1925,59.464 z" id="path4909" style="fill:url(#linearGradient4923)"/>
  <g id="g3366" style="fill:#ffffff">
    <path d="m 88.397,30.201 -4.0625,15.594 1.0626,0.7813 2.6873,1.9375 2.6876,1.9687 2.6874,1.9375 2.6876,1.9688 2.875,2.0624 c 2.3606,1.6117 3.1102,2.4368 3.3437,2.6563 -0.081,0.27935 -0.3067,1.2839 -1.25,4.1875 l -1.0313,3.1875 -1.0312,3.1563 -1.0312,3.1562 -1.0313,3.1562 -1,3.1563 -1.0313,3.1875 -1.0312,3.1562 -1.0312,3.1563 -1.0313,3.1563 -1.0933,3.375 c -0.8129,2.7753 -1.3716,3.7233 -1.5,4 -0.3561,0.009 -1.3152,0.094 -4.3749,0.094 h -33.468 c -2.8617,0.084 -3.933,-0.116 -4.25,-0.1563 -0.099,-0.25144 -0.4714,-0.88861 -1.4375,-4.1562 l -1.0313,-3.1562 -1.0312,-3.1563 -1.0312,-3.1563 -1.0313,-3.1562 -1.0313,-3.1875 -1.0312,-3.1563 -1,-3.1562 -1.0312,-3.1562 -1.0313,-3.1563 -1.0932,-3.375 c -0.9795,-2.7392 -1.0983,-3.8344 -1.1563,-4.125 0.2263,-0.18141 0.7323,-0.668 3.4686,-2.6563 l 2.6876,-1.9374 2.7187,-1.9688 2.6875,-1.9375 2.6875,-1.9687 2.6875,-1.9375 1.0312,-0.75 -4.0624,-15.594 -0.4063,0.2813 -2.6875,1.9687 -2.6875,1.9375 -2.6875,1.9688 -2.7188,1.9375 -2.6873,1.9687 -2.6876,1.9688 -2.6874,1.9375 c -3.2131,2.3343 -6.6834,4.2644 -8.6876,9.1249 -1.9794,4.8008 -0.8511,9.499 0.9691,14.625 l 1.031,3.1561 1.0313,3.1563 1.0313,3.1562 1.0312,3.1875 1.0312,3.1563 1.0313,3.1562 1.0313,3.1562 1,3.1563 1.0312,3.1875 1.0312,3.1562 c 1.2272,3.7771 1.9967,7.6856 5.9999,11.094 3.9487,3.3615 8.7588,3.7082 14.188,3.5625 h 33.251 c 3.9714,0 7.9277,0.4731 12.406,-2.2813 4.415,-2.7154 6.2739,-7.1702 7.8125,-12.375 l 1.0308,-3.1562 1,-3.1875 1.0312,-3.1563 1.0312,-3.1562 1.0313,-3.1562 1.0313,-3.1563 1.0312,-3.1875 1.0311,-3.1562 1.0313,-3.1563 1,-3.1563 c 1.2271,-3.777 2.9231,-7.3895 1.6875,-12.5 -1.2183,-5.0389 -4.8991,-8.1777 -9.3749,-11.25 L 104.9932,42.2638 102.2745,40.295 99.5869,38.3263 96.8995,36.3888 94.2119,34.42 91.5245,32.4825 88.8369,30.5138 88.3995,30.2013 z" id="path6354" style="text-indent:0;text-transform:none;block-progression:tb;color:#000000"/>
    <path d="m 67.526,19.176 c -4.3084,0.26351 -7.9562,2.5794 -11.719,5.4688 -0.036,0.027 -0.061,0.065 -0.094,0.094 l 10.312,39.704 4.5,10e-5 10.344,-39.704 -0.094,-0.094 C 77.562,22.3107 74.642,19.6115 69.4,19.2074 c -0.6454,-0.05 -1.2595,-0.069 -1.875,-0.031 z" id="path6356" style="text-indent:0;text-transform:none;block-progression:tb;color:#000000"/>
  </g>
</svg>