<?xml version="1.0" encoding="UTF-8" standalone="no"?>
<svg
   xmlns:dc="http://purl.org/dc/elements/1.1/"
   xmlns:cc="http://creativecommons.org/ns#"
   xmlns:rdf="http://www.w3.org/1999/02/22-rdf-syntax-ns#"
   xmlns:svg="http://www.w3.org/2000/svg"
   xmlns="http://www.w3.org/2000/svg"
   xmlns:xlink="http://www.w3.org/1999/xlink"
   version="1.1"
   width="393.19"
   height="133.42"
   id="svg2">
  <title
     id="title3015">SFML Logo</title>
  <defs
     id="defs4">
    <linearGradient
       id="linearGradient4987">
      <stop
         offset="0"
         style="stop-color:#a9ee52;stop-opacity:1"
         id="stop4989" />
      <stop
         offset="1"
         style="stop-color:#53880e;stop-opacity:1"
         id="stop4991" />
    </linearGradient>
    <linearGradient
       gradientTransform="translate(-2253.6,-2223.8)"
       gradientUnits="userSpaceOnUse"
       xlink:href="#linearGradient4987"
       id="linearGradient4885"
       y2="2428.3999"
       x2="2343.2"
       y1="2232"
       x1="2343.2" />
    <linearGradient
       gradientTransform="translate(-2253.6,-2223.8)"
       gradientUnits="userSpaceOnUse"
       xlink:href="#linearGradient4987"
       id="linearGradient4923"
       y2="2361.8999"
       x2="2343.2"
       y1="2232"
       x1="2343.2" />
    <linearGradient
       y2="16.88718"
       x2="234.81931"
       y1="51.698833"
       x1="234.98183"
       gradientTransform="matrix(1.4640765,0,0,1.687904,-64.693808,17.419698)"
       gradientUnits="userSpaceOnUse"
       id="linearGradient1517-188-364"
       xlink:href="#linearGradient6147-461-413" />
    <linearGradient
       id="linearGradient6147-461-413">
      <stop
         offset="0"
         style="stop-color:#cccccc;stop-opacity:1;opacity:1"
         id="stop1991" />
      <stop
         offset="1"
         style="stop-color:#ffffff;stop-opacity:1;opacity:1"
         id="stop1993" />
    </linearGradient>
    <linearGradient
       xlink:href="#linearGradient6147-414-501-505-281-785"
       id="linearGradient1644-715-982-956-35-637"
       gradientUnits="userSpaceOnUse"
       gradientTransform="matrix(0.79697,0,0,0.79697,-751.52,-2003.5)"
       x1="1278.2"
       y1="2655.6001"
       x2="1278.2"
       y2="2574.3999" />
    <linearGradient
       id="linearGradient6147-414-501-505-281-785">
      <stop
         id="stop4542"
         style="stop-color:#737373;stop-opacity:1;opacity:1"
         offset="0" />
      <stop
         id="stop4544"
         style="stop-color:#bebebe;stop-opacity:1;opacity:1"
         offset="1" />
    </linearGradient>
    <linearGradient
       xlink:href="#linearGradient6147-250-144-699-590-584"
       id="linearGradient1644-431-967-516-533-980"
       gradientUnits="userSpaceOnUse"
       gradientTransform="matrix(0.79697,0,0,0.79697,-751.52,-2003.5)"
       x1="1278.2"
       y1="2655.6001"
       x2="1278.2"
       y2="2574.3999" />
    <linearGradient
       id="linearGradient6147-250-144-699-590-584">
      <stop
         id="stop4548"
         style="stop-color:#737373;stop-opacity:1;opacity:1"
         offset="0" />
      <stop
         id="stop4550"
         style="stop-color:#bebebe;stop-opacity:1;opacity:1"
         offset="1" />
    </linearGradient>
    <linearGradient
       xlink:href="#linearGradient6147-434-87-134-426-413"
       id="linearGradient1644-886-452-526-814-384"
       gradientUnits="userSpaceOnUse"
       gradientTransform="matrix(0.79697,0,0,0.79697,-751.52,-2003.5)"
       x1="1278.2"
       y1="2655.6001"
       x2="1278.2"
       y2="2574.3999" />
    <linearGradient
       id="linearGradient6147-434-87-134-426-413">
      <stop
         id="stop4555"
         style="stop-color:#737373;stop-opacity:1;opacity:1"
         offset="0" />
      <stop
         id="stop4557"
         style="stop-color:#bebebe;stop-opacity:1;opacity:1"
         offset="1" />
    </linearGradient>
    <linearGradient
       xlink:href="#linearGradient6147-399-719-279-123-800"
       id="linearGradient1644-298-900-73-964-578"
       gradientUnits="userSpaceOnUse"
       gradientTransform="matrix(0.79697,0,0,0.79697,-751.52,-2003.5)"
       x1="1278.2"
       y1="2655.6001"
       x2="1278.2"
       y2="2574.3999" />
    <linearGradient
       id="linearGradient6147-399-719-279-123-800">
      <stop
         id="stop4561"
         style="stop-color:#737373;stop-opacity:1;opacity:1"
         offset="0" />
      <stop
         id="stop4563"
         style="stop-color:#bebebe;stop-opacity:1;opacity:1"
         offset="1" />
    </linearGradient>
    <linearGradient
       xlink:href="#linearGradient6147-907-117-945-43-120"
       id="linearGradient1644-474-445-500-749-745"
       gradientUnits="userSpaceOnUse"
       gradientTransform="matrix(0.79697,0,0,0.79697,-751.52,-2003.5)"
       x1="1278.2"
       y1="2655.6001"
       x2="1278.2"
       y2="2574.3999" />
    <linearGradient
       id="linearGradient6147-907-117-945-43-120">
      <stop
         id="stop4567"
         style="stop-color:#737373;stop-opacity:1;opacity:1"
         offset="0" />
      <stop
         id="stop4569"
         style="stop-color:#bebebe;stop-opacity:1;opacity:1"
         offset="1" />
    </linearGradient>
    <linearGradient
       xlink:href="#linearGradient6147-646-722-101-713-591"
       id="linearGradient1644-981-666-814-643-206"
       gradientUnits="userSpaceOnUse"
       gradientTransform="matrix(0.79697,0,0,0.79697,-751.52,-2003.5)"
       x1="1278.2"
       y1="2655.6001"
       x2="1278.2"
       y2="2574.3999" />
    <linearGradient
       id="linearGradient6147-646-722-101-713-591">
      <stop
         id="stop4573"
         style="stop-color:#737373;stop-opacity:1;opacity:1"
         offset="0" />
      <stop
         id="stop4575"
         style="stop-color:#bebebe;stop-opacity:1;opacity:1"
         offset="1" />
    </linearGradient>
    <linearGradient
       xlink:href="#linearGradient6147-445-476-289-437-296"
       id="linearGradient1644-440-902-675-998-427"
       gradientUnits="userSpaceOnUse"
       gradientTransform="matrix(0.79697,0,0,0.79697,-751.52,-2003.5)"
       x1="1278.2"
       y1="2655.6001"
       x2="1278.2"
       y2="2574.3999" />
    <linearGradient
       id="linearGradient6147-445-476-289-437-296">
      <stop
         id="stop4579"
         style="stop-color:#737373;stop-opacity:1;opacity:1"
         offset="0" />
      <stop
         id="stop4581"
         style="stop-color:#bebebe;stop-opacity:1;opacity:1"
         offset="1" />
    </linearGradient>
  </defs>
  <metadata
     id="metadata7">
    <rdf:RDF>
      <cc:Work
         rdf:about="">
        <dc:format>image/svg+xml</dc:format>
        <dc:type
           rdf:resource="http://purl.org/dc/dcmitype/StillImage" />
        <dc:title>SFML Logo</dc:title>
        <dc:date>1 May 2013</dc:date>
        <dc:creator>
          <cc:Agent>
            <dc:title>Michael Bradshaw</dc:title>
          </cc:Agent>
        </dc:creator>
        <cc:license
           rdf:resource="http://creativecommons.org/licenses/publicdomain/" />
      </cc:Work>
      <cc:License
         rdf:about="http://creativecommons.org/licenses/publicdomain/">
        <cc:permits
           rdf:resource="http://creativecommons.org/ns#Reproduction" />
        <cc:permits
           rdf:resource="http://creativecommons.org/ns#Distribution" />
        <cc:permits
           rdf:resource="http://creativecommons.org/ns#DerivativeWorks" />
      </cc:License>
    </rdf:RDF>
  </metadata>
  <g
     transform="matrix(1.0385815,0,0,1.1054191,-14.786114,-11.713311)"
     id="g4722">
    <path
       id="path6210"
       d="m 252.43217,88.014439 c -4.32002,0.1764 -8.67267,0.365727 -12.89515,0.511644 v 14.339927 c 0,2.05502 0.6326,3.811 1.89761,5.2694 1.23627,1.45841 2.73151,2.18775 4.48527,2.18775 h 0.0862 c 1.81127,0 3.33526,-0.72934 4.57153,-2.18775 1.23626,-1.4584 1.85448,-3.21438 1.85448,-5.2694 z"
       style="font-style:normal;font-variant:normal;font-weight:normal;font-stretch:normal;font-size:94.48281097px;line-height:0%;font-family:'DejaVu Sans';-inkscape-font-specification:'DejaVu Sans, Normal';font-variant-ligatures:normal;font-variant-caps:normal;font-variant-numeric:normal;font-feature-settings:normal;text-align:start;letter-spacing:0px;word-spacing:0px;writing-mode:lr-tb;text-anchor:start;opacity:1;vector-effect:none;fill:url(#linearGradient1644-981-666-814-643-206);fill-opacity:1;stroke:none;stroke-width:1;stroke-linecap:butt;stroke-linejoin:miter;stroke-miterlimit:4;stroke-dasharray:none;stroke-dashoffset:0;stroke-opacity:1" />
    <path
       id="path6208"
       d="m 292.50554,85.534596 c -1.11636,0.09836 -2.29677,0.231794 -3.39728,0.323461 -3.00987,0.250694 -5.62157,0.348675 -8.51573,0.554774 v 17.247119 c 0,1.69043 0.57508,3.19865 1.72509,4.52447 1.12127,1.32583 2.4296,1.98975 3.92461,1.98975 h 0.94881 c 1.58127,0 2.93273,-0.63024 4.054,-1.88977 1.12126,-1.29268 1.66759,-2.83459 1.63884,-4.62445 z"
       style="font-style:normal;font-variant:normal;font-weight:normal;font-stretch:normal;font-size:94.48281097px;line-height:0%;font-family:'DejaVu Sans';-inkscape-font-specification:'DejaVu Sans, Normal';font-variant-ligatures:normal;font-variant-caps:normal;font-variant-numeric:normal;font-feature-settings:normal;text-align:start;letter-spacing:0px;word-spacing:0px;writing-mode:lr-tb;text-anchor:start;opacity:1;vector-effect:none;fill:url(#linearGradient1644-474-445-500-749-745);fill-opacity:1;stroke:none;stroke-width:1;stroke-linecap:butt;stroke-linejoin:miter;stroke-miterlimit:4;stroke-dasharray:none;stroke-dashoffset:0;stroke-opacity:1" />
    <path
       id="path6204"
       d="m 324.26116,81.702122 c -1.52042,0.239291 -3.04346,0.545047 -4.55976,0.764535 -2.38553,0.345322 -4.71522,0.591629 -7.08077,0.891955 l -2.27204,9.164612 -2.14854,-8.609829 c -1.35482,0.158584 -2.74479,0.369672 -4.08731,0.515569 -2.36342,0.256846 -4.61045,0.439087 -6.9259,0.660633 l 4.32256,17.476473 c 0.54625,2.18762 1.63893,4.01096 3.27769,5.46936 1.61002,1.42526 3.40522,2.13874 5.38899,2.13874 h 0.17251 c 1.92627,0 3.73781,-0.69565 5.43408,-2.08777 1.69627,-1.42526 2.8177,-3.26643 3.36395,-5.52033 z"
       style="font-style:normal;font-variant:normal;font-weight:normal;font-stretch:normal;font-size:94.48281097px;line-height:0%;font-family:'DejaVu Sans';-inkscape-font-specification:'DejaVu Sans, Normal';font-variant-ligatures:normal;font-variant-caps:normal;font-variant-numeric:normal;font-feature-settings:normal;text-align:start;letter-spacing:0px;word-spacing:0px;writing-mode:lr-tb;text-anchor:start;opacity:1;vector-effect:none;fill:url(#linearGradient1644-440-902-675-998-427);fill-opacity:1;stroke:none;stroke-width:1;stroke-linecap:butt;stroke-linejoin:miter;stroke-miterlimit:4;stroke-dasharray:none;stroke-dashoffset:0;stroke-opacity:1" />
    <path
       id="path6200"
       d="m 340.10663,78.783171 c -1.54567,0.325509 -3.06014,0.73289 -4.6127,1.033105 -2.4353,0.470905 -4.87612,0.814249 -7.31796,1.22717 l -0.44696,22.616504 c 0,1.78986 0.56072,3.33177 1.68198,4.62445 1.12126,1.25953 2.47273,1.88977 4.05399,1.88977 h 0.0862 c 2.01251,0 3.6084,-0.6461 4.78716,-1.93878 1.17876,-1.29268 1.76823,-2.81873 1.76823,-4.57544 z"
       style="font-style:normal;font-variant:normal;font-weight:normal;font-stretch:normal;font-size:94.48281097px;line-height:0%;font-family:'DejaVu Sans';-inkscape-font-specification:'DejaVu Sans, Normal';font-variant-ligatures:normal;font-variant-caps:normal;font-variant-numeric:normal;font-feature-settings:normal;text-align:start;letter-spacing:0px;word-spacing:0px;writing-mode:lr-tb;text-anchor:start;opacity:1;vector-effect:none;fill:url(#linearGradient1644-715-982-956-35-637);fill-opacity:1;stroke:none;stroke-width:1;stroke-linecap:butt;stroke-linejoin:miter;stroke-miterlimit:4;stroke-dasharray:none;stroke-dashoffset:0;stroke-opacity:1" />
    <path
       id="path6196"
       d="m 359.13962,74.133236 c -2.67699,0.744512 -5.28006,1.473637 -8.03154,2.183823 -1.5179,0.391783 -3.08588,0.671854 -4.61857,1.035062 v 25.313929 c 0,1.95559 0.57313,3.59661 1.72314,4.92243 1.17877,1.32582 2.60212,1.98779 4.26964,1.98779 h 24.79836 c 1.40876,0 2.60207,-0.56287 3.57958,-1.68982 0.94877,-1.1601 1.42321,-2.83284 1.42321,-5.02044 v -0.1 c 0.0287,-1.55784 -0.46007,-2.933285 -1.46634,-4.12653 -1.00625,-1.226387 -2.1852,-1.791207 -3.53645,-1.691771 l -18.54487,0.94488 z"
       style="font-style:normal;font-variant:normal;font-weight:normal;font-stretch:normal;font-size:94.48281097px;line-height:0%;font-family:'DejaVu Sans';-inkscape-font-specification:'DejaVu Sans, Normal';font-variant-ligatures:normal;font-variant-caps:normal;font-variant-numeric:normal;font-feature-settings:normal;text-align:start;letter-spacing:0px;word-spacing:0px;writing-mode:lr-tb;text-anchor:start;opacity:1;vector-effect:none;fill:url(#linearGradient1644-431-967-516-533-980);fill-opacity:1;stroke:none;stroke-width:1;stroke-linecap:butt;stroke-linejoin:miter;stroke-miterlimit:4;stroke-dasharray:none;stroke-dashoffset:0;stroke-opacity:1" />
    <path
       id="path6192"
       d="m 184.62189,89.041652 c -0.78827,-0.02339 -1.3759,0.005 -2.17794,-0.02158 -5.27039,-0.17647 -10.8442,-0.428338 -16.39437,-0.607708 -5.55017,-0.179371 -11.07712,-0.284368 -16.25125,-0.168591 -1.84967,0.04135 -3.58547,0.151849 -5.33018,0.256806 l -3.42865,11.481735 c -0.69,2.386486 -0.40246,4.606226 0.86256,6.661256 1.265,2.08818 2.97591,3.13264 5.13218,3.13264 h 0.9488 c 1.63877,0 3.07453,-0.4816 4.3108,-1.44282 1.20751,-0.96123 1.94075,-2.23757 2.19951,-3.82856 l 2.07012,-12.179616 h 16.34536 l 2.24263,12.330566 c 0.23001,1.45841 0.93449,2.66738 2.11325,3.6286 1.17876,0.99436 2.45835,1.49183 3.83836,1.49183 h 0.9488 c 2.15627,0 3.88155,-1.04446 5.17531,-3.13264 1.29377,-2.05503 1.56693,-4.27477 0.81943,-6.661256 z"
       style="font-style:normal;font-variant:normal;font-weight:normal;font-stretch:normal;font-size:94.48281097px;line-height:0%;font-family:'DejaVu Sans';-inkscape-font-specification:'DejaVu Sans, Normal';font-variant-ligatures:normal;font-variant-caps:normal;font-variant-numeric:normal;font-feature-settings:normal;text-align:start;letter-spacing:0px;word-spacing:0px;writing-mode:lr-tb;text-anchor:start;opacity:1;vector-effect:none;fill:url(#linearGradient1644-298-900-73-964-578);fill-opacity:1;stroke:none;stroke-width:1;stroke-linecap:butt;stroke-linejoin:miter;stroke-miterlimit:4;stroke-dasharray:none;stroke-dashoffset:0;stroke-opacity:1" />
    <path
       id="path6190"
       d="m 232.64837,88.749567 c -4.54363,0.150965 -9.21154,0.256574 -13.8714,0.362665 0.85618,1.076304 1.39772,2.321018 1.39772,3.857959 0,1.856146 -0.73324,3.36437 -2.1995,4.524473 -1.46627,1.160092 -3.34969,1.740781 -5.64971,1.740781 -2.32878,0 -5.21861,-0.630241 -8.66865,-1.88977 -1.46626,-0.563475 -2.86087,-0.412871 -4.18338,0.448923 -1.29376,0.828632 -2.12764,2.087157 -2.50139,3.777582 l -0.0862,0.19996 c -0.31625,1.55783 -0.1006,3.06606 0.64692,4.52447 0.71875,1.4584 1.73954,2.36812 3.06205,2.73272 4.2263,1.45841 7.76311,2.18774 10.60939,2.18774 7.44632,0 13.11098,-2.05523 16.99227,-6.16527 3.24878,-3.51344 4.87146,-7.937066 4.87146,-13.273499 0,-1.084544 -0.27562,-2.021144 -0.41952,-3.028734 z"
       style="font-style:normal;font-variant:normal;font-weight:normal;font-stretch:normal;font-size:94.48281097px;line-height:0%;font-family:'DejaVu Sans';-inkscape-font-specification:'DejaVu Sans, Normal';font-variant-ligatures:normal;font-variant-caps:normal;font-variant-numeric:normal;font-feature-settings:normal;text-align:start;letter-spacing:0px;word-spacing:0px;writing-mode:lr-tb;text-anchor:start;opacity:1;vector-effect:none;fill:url(#linearGradient1644-886-452-526-814-384);fill-opacity:1;stroke:none;stroke-width:1;stroke-linecap:butt;stroke-linejoin:miter;stroke-miterlimit:4;stroke-dasharray:none;stroke-dashoffset:0;stroke-opacity:1" />
    <text
       xml:space="preserve"
       style="font-style:normal;font-variant:normal;font-weight:normal;font-stretch:normal;font-size:93.72946167px;line-height:0%;font-family:'DejaVu Sans';-inkscape-font-specification:'DejaVu Sans, Normal';font-variant-ligatures:normal;font-variant-caps:normal;font-variant-numeric:normal;font-feature-settings:normal;text-align:start;letter-spacing:0px;word-spacing:0px;writing-mode:lr-tb;text-anchor:start;opacity:0.725;vector-effect:none;fill:url(#linearGradient1517-188-364);fill-opacity:1;stroke:none;stroke-width:1.00369644;stroke-linecap:butt;stroke-linejoin:miter;stroke-miterlimit:4;stroke-dasharray:none;stroke-dashoffset:0;stroke-opacity:1"
       x="143.13991"
       y="103.17465"
       id="text1473"
       transform="scale(0.94239766,1.0611232)"><tspan
         id="tspan1471"
         x="143.13991"
         y="103.17465"
         style="font-style:normal;font-variant:normal;font-weight:normal;font-stretch:normal;font-size:93.72946167px;font-family:Dyuthi;-inkscape-font-specification:'Dyuthi, Normal';font-variant-ligatures:normal;font-variant-caps:normal;font-variant-numeric:normal;font-feature-settings:normal;text-align:start;writing-mode:lr-tb;text-anchor:start;opacity:1;vector-effect:none;fill:url(#linearGradient1517-188-364);fill-opacity:1;stroke:none;stroke-width:1.00369644;stroke-linecap:butt;stroke-linejoin:miter;stroke-miterlimit:4;stroke-dasharray:none;stroke-dashoffset:0;stroke-opacity:1">ASFML</tspan></text>
    <text
       xml:space="preserve"
       style="font-style:normal;font-variant:normal;font-weight:normal;font-stretch:normal;font-size:93.72946167px;line-height:0%;font-family:'DejaVu Sans';-inkscape-font-specification:'DejaVu Sans, Normal';font-variant-ligatures:normal;font-variant-caps:normal;font-variant-numeric:normal;font-feature-settings:normal;text-align:start;letter-spacing:0px;word-spacing:0px;writing-mode:lr-tb;text-anchor:start;opacity:0.775;vector-effect:none;fill:none;fill-opacity:1;stroke:#646464;stroke-width:1.00399995;stroke-linecap:butt;stroke-linejoin:miter;stroke-miterlimit:4;stroke-dasharray:none;stroke-dashoffset:0;stroke-opacity:1"
       x="143.13991"
       y="102.70171"
       id="text1473-1"
       transform="scale(0.94239765,1.0611232)"><tspan
         id="tspan1471-5"
         x="143.13991"
         y="102.70171"
         style="font-style:normal;font-variant:normal;font-weight:normal;font-stretch:normal;font-size:93.72946167px;font-family:Dyuthi;-inkscape-font-specification:'Dyuthi, Normal';font-variant-ligatures:normal;font-variant-caps:normal;font-variant-numeric:normal;font-feature-settings:normal;text-align:start;writing-mode:lr-tb;text-anchor:start;opacity:1;vector-effect:none;fill:none;fill-opacity:1;stroke:#646464;stroke-width:1.00399995;stroke-linecap:butt;stroke-linejoin:miter;stroke-miterlimit:4;stroke-dasharray:none;stroke-dashoffset:0;stroke-opacity:1">ASFML</tspan></text>
  </g>
  <path
     style="fill:url(#linearGradient4885)"
     id="path6382"
     d="m 87.546,19.273 3.886,2.8233 3.8859,2.8233 3.886,2.8233 3.886,2.8233 3.8858,2.8233 3.886,2.8233 c 19.738,14.509 17.411,20.329 12.008,36.958 l -1.4844,4.5682 -1.4843,4.5681 -1.4843,4.5681 -1.4843,4.5682 -1.4843,4.5682 -1.4843,4.5682 c -7.6993,23.255 -13.954,22.841 -31.438,22.841 h -28.819 c -24.497,-0.1361 -26.035,-6.2125 -31.438,-22.841 l -1.4843,-4.5682 -1.4843,-4.5682 -1.4843,-4.5682 -1.4843,-4.5681 -1.4843,-4.5682 -1.4844,-4.5682 c -7.4402,-23.34 -2.1364,-26.681 12.008,-36.958 l 3.8859,-2.8233 3.886,-2.8233 3.8859,-2.8233 3.8859,-2.8234 3.886,-2.8233 3.886,-2.8233 c 19.898,-14.289 24.715,-10.277 38.859,10e-5 z" />
  <path
     style="fill:url(#linearGradient4923)"
     id="path4909"
     d="m 10.188,59.469 c 0.37239,3.6681 1.4035,8.091 3.1875,13.688 l 1.4688,4.5938 1.5,4.5625 1.4688,4.5625 1.5,4.5625 1.4688,4.5625 1.5,4.5938 c 5.403,16.629 6.9408,22.676 31.438,22.812 h 28.812 c 17.484,0 23.738,0.4429 31.438,-22.812 l 1.4688,-4.5938 1.5,-4.5625 1.4688,-4.5625 1.125,-3.4688 C 74.9375,78.815 36.8215,70.363 10.1925,59.464 z" />
  <g
     style="fill:#ffffff"
     id="g3366">
    <path
       style="text-indent:0;text-transform:none;block-progression:tb;color:#000000"
       id="path6354"
       d="m 88.397,30.201 -4.0625,15.594 1.0626,0.7813 2.6873,1.9375 2.6876,1.9687 2.6874,1.9375 2.6876,1.9688 2.875,2.0624 c 2.3606,1.6117 3.1102,2.4368 3.3437,2.6563 -0.081,0.27935 -0.3067,1.2839 -1.25,4.1875 l -1.0313,3.1875 -1.0312,3.1563 -1.0312,3.1562 -1.0313,3.1562 -1,3.1563 -1.0313,3.1875 -1.0312,3.1562 -1.0312,3.1563 -1.0313,3.1563 -1.0933,3.375 c -0.8129,2.7753 -1.3716,3.7233 -1.5,4 -0.3561,0.009 -1.3152,0.094 -4.3749,0.094 h -33.468 c -2.8617,0.084 -3.933,-0.116 -4.25,-0.1563 -0.099,-0.25144 -0.4714,-0.88861 -1.4375,-4.1562 l -1.0313,-3.1562 -1.0312,-3.1563 -1.0312,-3.1563 -1.0313,-3.1562 -1.0313,-3.1875 -1.0312,-3.1563 -1,-3.1562 -1.0312,-3.1562 -1.0313,-3.1563 -1.0932,-3.375 c -0.9795,-2.7392 -1.0983,-3.8344 -1.1563,-4.125 0.2263,-0.18141 0.7323,-0.668 3.4686,-2.6563 l 2.6876,-1.9374 2.7187,-1.9688 2.6875,-1.9375 2.6875,-1.9687 2.6875,-1.9375 1.0312,-0.75 -4.0624,-15.594 -0.4063,0.2813 -2.6875,1.9687 -2.6875,1.9375 -2.6875,1.9688 -2.7188,1.9375 -2.6873,1.9687 -2.6876,1.9688 -2.6874,1.9375 c -3.2131,2.3343 -6.6834,4.2644 -8.6876,9.1249 -1.9794,4.8008 -0.8511,9.499 0.9691,14.625 l 1.031,3.1561 1.0313,3.1563 1.0313,3.1562 1.0312,3.1875 1.0312,3.1563 1.0313,3.1562 1.0313,3.1562 1,3.1563 1.0312,3.1875 1.0312,3.1562 c 1.2272,3.7771 1.9967,7.6856 5.9999,11.094 3.9487,3.3615 8.7588,3.7082 14.188,3.5625 h 33.251 c 3.9714,0 7.9277,0.4731 12.406,-2.2813 4.415,-2.7154 6.2739,-7.1702 7.8125,-12.375 l 1.0308,-3.1562 1,-3.1875 1.0312,-3.1563 1.0312,-3.1562 1.0313,-3.1562 1.0313,-3.1563 1.0312,-3.1875 1.0311,-3.1562 1.0313,-3.1563 1,-3.1563 c 1.2271,-3.777 2.9231,-7.3895 1.6875,-12.5 -1.2183,-5.0389 -4.8991,-8.1777 -9.3749,-11.25 L 104.9932,42.2638 102.2745,40.295 99.5869,38.3263 96.8995,36.3888 94.2119,34.42 91.5245,32.4825 88.8369,30.5138 88.3995,30.2013 z" />
    <path
       style="text-indent:0;text-transform:none;block-progression:tb;color:#000000"
       id="path6356"
       d="m 67.526,19.176 c -4.3084,0.26351 -7.9562,2.5794 -11.719,5.4688 -0.036,0.027 -0.061,0.065 -0.094,0.094 l 10.312,39.704 4.5,10e-5 10.344,-39.704 -0.094,-0.094 C 77.562,22.3107 74.642,19.6115 69.4,19.2074 c -0.6454,-0.05 -1.2595,-0.069 -1.875,-0.031 z" />
  </g>
</svg>
